<svg width="50" height="50" viewBox="0 0 50 50" fill="none" xmlns="http://www.w3.org/2000/svg">
<path d="M40.1783 29.0076L43.3742 34.5025L43.4082 34.5609L43.4368 34.6221L43.5349 34.8323L43.5622 34.8908L43.5844 34.9515C43.7388 35.3735 43.7883 35.8267 43.7283 36.2722C43.6683 36.7177 43.5008 37.1414 43.2408 37.5073L42.018 36.6386L43.2408 37.5073C42.9809 37.8732 42.6366 38.1701 42.2379 38.3739L41.5554 37.0381L42.2379 38.3739C41.8409 38.5767 41.4012 38.6814 40.9559 38.6797M40.1783 29.0076L37.1325 37.1797H35.6325V35.6797V33.8781L34.1325 34.9203M40.1783 29.0076L44.2865 26.6532L47.4921 32.1647L47.4921 32.1648C48.1526 33.3003 48.4999 34.5874 48.5 35.8971C48.5001 37.2067 48.153 38.494 47.4927 39.6296C46.8323 40.7653 45.8817 41.7098 44.7351 42.3673C43.5886 43.0246 42.2872 43.3714 40.9616 43.3719C40.9615 43.3719 40.9613 43.3719 40.9612 43.3719H35.6325H34.1325V44.8719V47.1312M40.1783 29.0076L34.1325 47.1312M40.9559 38.6797C40.954 38.6797 40.9522 38.6797 40.9503 38.6797L40.9591 37.1797V38.6797H40.9559ZM40.9559 38.6797H35.6325H34.1325V37.1797V34.9203M34.1325 34.9203L25.3454 41.0258L34.1325 47.1312M34.1325 34.9203V33.0938L24.031 40.1125L34.1325 47.1312M9.64047 38.6797H16.0502V43.3719H9.64047C8.31463 43.3718 7.01274 43.0254 5.86581 42.3681C4.71896 41.7108 3.76798 40.7663 3.10738 39.6305C2.44683 38.4948 2.09952 37.2074 2.09953 35.8976C2.09954 34.5878 2.44686 33.3004 3.10743 32.1648L3.10748 32.1647L5.77075 27.5853L6.52966 26.2803L5.21992 25.5297L3.26381 24.4087L12.9801 19.9092L13.9111 30.5104L11.9343 29.3762L10.6414 28.6344L9.89146 29.9226L7.22996 34.4946C7.2291 34.496 7.22825 34.4975 7.2274 34.4989C7.00082 34.8847 6.87075 35.3197 6.84895 35.7671C6.82706 36.2162 6.91495 36.6636 7.10462 37.0709C7.29427 37.4781 7.57976 37.8326 7.93578 38.1049C8.29176 38.3771 8.70789 38.5592 9.14853 38.6366L9.21198 38.6477L9.27615 38.6534L9.50864 38.6739L9.57442 38.6797H9.64047ZM29.0742 2.50465L29.0748 2.50498C30.2212 3.16162 31.1724 4.10629 31.8324 5.2415C31.8325 5.24162 31.8326 5.24174 31.8326 5.24185L34.4931 9.82091L35.242 11.1099L36.5356 10.369L38.5214 9.2316L37.5902 19.8346L27.8717 15.3357L29.8274 14.2149L31.1371 13.4643L30.3782 12.1593L27.7184 7.58587C27.7177 7.58465 27.717 7.58344 27.7163 7.58222C27.4925 7.19475 27.1786 6.86761 26.8021 6.62772L26.0184 7.85775L26.8021 6.62771C26.4244 6.3871 25.9946 6.24113 25.5492 6.20149C25.1037 6.16184 24.655 6.22958 24.241 6.39934C23.827 6.56913 23.4592 6.8362 23.1698 7.17878L23.1315 7.2241L23.0969 7.2723L22.9626 7.45948L22.9206 7.51799L22.8844 7.58027L19.6812 13.0914L15.5706 10.7366L18.7642 5.24199C18.7643 5.2419 18.7643 5.24181 18.7644 5.24171C19.2586 4.39189 19.9171 3.64628 20.7027 3.04789C21.4885 2.4494 22.3859 2.01 23.3439 1.75527C24.3019 1.50054 25.3013 1.43561 26.2848 1.56428C27.2683 1.69295 28.2161 2.01263 29.0742 2.50465Z" fill="white" stroke="white" stroke-width="3"/>
</svg>
